<mxfile host="app.diagrams.net" modified="2024-04-15T07:37:27.203Z" agent="Mozilla/5.0 (Windows NT 10.0; Win64; x64) AppleWebKit/537.36 (KHTML, like Gecko) Chrome/123.0.0.0 Safari/537.36" version="24.2.5" etag="sEAh9h7-V8T_WjmUuvvv" type="github">
  <diagram name="第 1 页" id="yrj7VSy26QdRI7zJ8TvI">
    <mxGraphModel>
      <root>
        <mxCell id="0" />
        <mxCell id="1" parent="0" />
      </root>
    </mxGraphModel>
  </diagram>
</mxfile>
